<mxfile host="app.diagrams.net" agent="Mozilla/5.0 (Windows NT 10.0; Win64; x64) AppleWebKit/537.36 (KHTML, like Gecko) Chrome/132.0.0.0 Safari/537.36" version="26.0.14">
  <diagram name="Page-1" id="CA-pLet-ZEsGszCpmOaA">
    <mxGraphModel dx="1088" dy="2163" grid="1" gridSize="10" guides="1" tooltips="1" connect="1" arrows="1" fold="1" page="1" pageScale="1" pageWidth="850" pageHeight="1100" math="0" shadow="0">
      <root>
        <mxCell id="0" />
        <mxCell id="1" parent="0" />
        <mxCell id="EREIrCHlglOrBg9rId-w-4" value="user" style="rounded=0;whiteSpace=wrap;html=1;" parent="1" vertex="1">
          <mxGeometry x="890" y="480" width="120" height="60" as="geometry" />
        </mxCell>
        <mxCell id="EREIrCHlglOrBg9rId-w-5" value="kustomer" style="rounded=0;whiteSpace=wrap;html=1;" parent="1" vertex="1">
          <mxGeometry x="250" y="90" width="120" height="60" as="geometry" />
        </mxCell>
        <mxCell id="EREIrCHlglOrBg9rId-w-6" value="outlet" style="rounded=0;whiteSpace=wrap;html=1;" parent="1" vertex="1">
          <mxGeometry x="510" y="458" width="120" height="60" as="geometry" />
        </mxCell>
        <mxCell id="EREIrCHlglOrBg9rId-w-10" value="id (PK)" style="ellipse;whiteSpace=wrap;html=1;" parent="1" vertex="1">
          <mxGeometry x="1030" y="490" width="80" height="40" as="geometry" />
        </mxCell>
        <mxCell id="EREIrCHlglOrBg9rId-w-11" value="username" style="ellipse;whiteSpace=wrap;html=1;" parent="1" vertex="1">
          <mxGeometry x="980" y="420" width="80" height="40" as="geometry" />
        </mxCell>
        <mxCell id="EREIrCHlglOrBg9rId-w-12" value="password" style="ellipse;whiteSpace=wrap;html=1;" parent="1" vertex="1">
          <mxGeometry x="785" y="520" width="80" height="40" as="geometry" />
        </mxCell>
        <mxCell id="EREIrCHlglOrBg9rId-w-13" value="role" style="ellipse;whiteSpace=wrap;html=1;" parent="1" vertex="1">
          <mxGeometry x="835" y="420" width="80" height="40" as="geometry" />
        </mxCell>
        <mxCell id="EREIrCHlglOrBg9rId-w-15" value="" style="endArrow=none;html=1;rounded=0;entryX=0.5;entryY=1;entryDx=0;entryDy=0;exitX=0;exitY=0;exitDx=0;exitDy=0;" parent="1" source="EREIrCHlglOrBg9rId-w-4" target="EREIrCHlglOrBg9rId-w-13" edge="1">
          <mxGeometry width="50" height="50" relative="1" as="geometry">
            <mxPoint x="930" y="540" as="sourcePoint" />
            <mxPoint x="980" y="490" as="targetPoint" />
          </mxGeometry>
        </mxCell>
        <mxCell id="EREIrCHlglOrBg9rId-w-17" value="" style="endArrow=none;html=1;rounded=0;entryX=0.5;entryY=1;entryDx=0;entryDy=0;exitX=1;exitY=0;exitDx=0;exitDy=0;" parent="1" source="EREIrCHlglOrBg9rId-w-4" target="EREIrCHlglOrBg9rId-w-11" edge="1">
          <mxGeometry width="50" height="50" relative="1" as="geometry">
            <mxPoint x="900" y="490" as="sourcePoint" />
            <mxPoint x="885" y="470" as="targetPoint" />
          </mxGeometry>
        </mxCell>
        <mxCell id="EREIrCHlglOrBg9rId-w-19" value="" style="endArrow=none;html=1;rounded=0;entryX=1;entryY=0.5;entryDx=0;entryDy=0;exitX=0;exitY=0.5;exitDx=0;exitDy=0;" parent="1" source="EREIrCHlglOrBg9rId-w-10" target="EREIrCHlglOrBg9rId-w-4" edge="1">
          <mxGeometry width="50" height="50" relative="1" as="geometry">
            <mxPoint x="1020" y="490" as="sourcePoint" />
            <mxPoint x="1030" y="470" as="targetPoint" />
          </mxGeometry>
        </mxCell>
        <mxCell id="EREIrCHlglOrBg9rId-w-20" value="id (PK)" style="ellipse;whiteSpace=wrap;html=1;" parent="1" vertex="1">
          <mxGeometry x="140" y="100" width="85" height="40" as="geometry" />
        </mxCell>
        <mxCell id="EREIrCHlglOrBg9rId-w-21" value="nama" style="ellipse;whiteSpace=wrap;html=1;" parent="1" vertex="1">
          <mxGeometry x="190" y="30" width="85" height="40" as="geometry" />
        </mxCell>
        <mxCell id="EREIrCHlglOrBg9rId-w-22" value="tlp" style="ellipse;whiteSpace=wrap;html=1;" parent="1" vertex="1">
          <mxGeometry x="360" y="30" width="85" height="40" as="geometry" />
        </mxCell>
        <mxCell id="EREIrCHlglOrBg9rId-w-23" value="alamat" style="ellipse;whiteSpace=wrap;html=1;" parent="1" vertex="1">
          <mxGeometry x="395" y="100" width="85" height="40" as="geometry" />
        </mxCell>
        <mxCell id="EREIrCHlglOrBg9rId-w-25" value="" style="endArrow=none;html=1;rounded=0;entryX=0.5;entryY=1;entryDx=0;entryDy=0;exitX=0;exitY=0.25;exitDx=0;exitDy=0;" parent="1" source="EREIrCHlglOrBg9rId-w-5" target="EREIrCHlglOrBg9rId-w-21" edge="1">
          <mxGeometry width="50" height="50" relative="1" as="geometry">
            <mxPoint x="290" y="100" as="sourcePoint" />
            <mxPoint x="340" y="50" as="targetPoint" />
          </mxGeometry>
        </mxCell>
        <mxCell id="EREIrCHlglOrBg9rId-w-26" value="" style="endArrow=none;html=1;rounded=0;entryX=0.5;entryY=1;entryDx=0;entryDy=0;exitX=1;exitY=0.25;exitDx=0;exitDy=0;" parent="1" source="EREIrCHlglOrBg9rId-w-5" target="EREIrCHlglOrBg9rId-w-22" edge="1">
          <mxGeometry width="50" height="50" relative="1" as="geometry">
            <mxPoint x="260" y="115" as="sourcePoint" />
            <mxPoint x="243" y="80" as="targetPoint" />
          </mxGeometry>
        </mxCell>
        <mxCell id="EREIrCHlglOrBg9rId-w-27" value="" style="endArrow=none;html=1;rounded=0;entryX=0;entryY=0.5;entryDx=0;entryDy=0;exitX=1;exitY=0.5;exitDx=0;exitDy=0;" parent="1" source="EREIrCHlglOrBg9rId-w-5" target="EREIrCHlglOrBg9rId-w-23" edge="1">
          <mxGeometry width="50" height="50" relative="1" as="geometry">
            <mxPoint x="380" y="115" as="sourcePoint" />
            <mxPoint x="413" y="80" as="targetPoint" />
          </mxGeometry>
        </mxCell>
        <mxCell id="EREIrCHlglOrBg9rId-w-28" value="" style="endArrow=none;html=1;rounded=0;entryX=1;entryY=0.5;entryDx=0;entryDy=0;exitX=0;exitY=0.5;exitDx=0;exitDy=0;" parent="1" source="EREIrCHlglOrBg9rId-w-5" target="EREIrCHlglOrBg9rId-w-20" edge="1">
          <mxGeometry width="50" height="50" relative="1" as="geometry">
            <mxPoint x="250" y="120" as="sourcePoint" />
            <mxPoint x="243" y="80" as="targetPoint" />
          </mxGeometry>
        </mxCell>
        <mxCell id="EREIrCHlglOrBg9rId-w-29" value="id (PK)" style="ellipse;whiteSpace=wrap;html=1;" parent="1" vertex="1">
          <mxGeometry x="530" y="548" width="80" height="40" as="geometry" />
        </mxCell>
        <mxCell id="EREIrCHlglOrBg9rId-w-30" value="nama" style="ellipse;whiteSpace=wrap;html=1;" parent="1" vertex="1">
          <mxGeometry x="400" y="468" width="80" height="40" as="geometry" />
        </mxCell>
        <mxCell id="EREIrCHlglOrBg9rId-w-31" value="alamat" style="ellipse;whiteSpace=wrap;html=1;" parent="1" vertex="1">
          <mxGeometry x="645" y="560" width="80" height="40" as="geometry" />
        </mxCell>
        <mxCell id="EREIrCHlglOrBg9rId-w-32" value="" style="endArrow=none;html=1;rounded=0;exitX=0.5;exitY=1;exitDx=0;exitDy=0;entryX=0.5;entryY=0;entryDx=0;entryDy=0;" parent="1" source="EREIrCHlglOrBg9rId-w-6" target="EREIrCHlglOrBg9rId-w-29" edge="1">
          <mxGeometry width="50" height="50" relative="1" as="geometry">
            <mxPoint x="590" y="538" as="sourcePoint" />
            <mxPoint x="620" y="548" as="targetPoint" />
          </mxGeometry>
        </mxCell>
        <mxCell id="EREIrCHlglOrBg9rId-w-33" value="" style="endArrow=none;html=1;rounded=0;entryX=0;entryY=0.5;entryDx=0;entryDy=0;exitX=0.94;exitY=0.994;exitDx=0;exitDy=0;exitPerimeter=0;" parent="1" source="EREIrCHlglOrBg9rId-w-6" target="EREIrCHlglOrBg9rId-w-31" edge="1">
          <mxGeometry width="50" height="50" relative="1" as="geometry">
            <mxPoint x="630" y="540" as="sourcePoint" />
            <mxPoint x="660" y="448" as="targetPoint" />
          </mxGeometry>
        </mxCell>
        <mxCell id="EREIrCHlglOrBg9rId-w-34" value="" style="endArrow=none;html=1;rounded=0;exitX=1;exitY=0.5;exitDx=0;exitDy=0;entryX=0;entryY=0.5;entryDx=0;entryDy=0;" parent="1" source="EREIrCHlglOrBg9rId-w-30" target="EREIrCHlglOrBg9rId-w-6" edge="1">
          <mxGeometry width="50" height="50" relative="1" as="geometry">
            <mxPoint x="610" y="498" as="sourcePoint" />
            <mxPoint x="660" y="448" as="targetPoint" />
          </mxGeometry>
        </mxCell>
        <mxCell id="EREIrCHlglOrBg9rId-w-36" value="paket" style="rounded=0;whiteSpace=wrap;html=1;" parent="1" vertex="1">
          <mxGeometry x="887.5" y="288" width="120" height="60" as="geometry" />
        </mxCell>
        <mxCell id="EREIrCHlglOrBg9rId-w-37" value="id (pk)" style="ellipse;whiteSpace=wrap;html=1;" parent="1" vertex="1">
          <mxGeometry x="777.5" y="298" width="85" height="40" as="geometry" />
        </mxCell>
        <mxCell id="EREIrCHlglOrBg9rId-w-38" value="&lt;span style=&quot;font-weight: normal;&quot;&gt;nama_paket&lt;/span&gt;" style="ellipse;whiteSpace=wrap;html=1;fontStyle=1" parent="1" vertex="1">
          <mxGeometry x="802.5" y="228" width="85" height="40" as="geometry" />
        </mxCell>
        <mxCell id="EREIrCHlglOrBg9rId-w-39" value="harga" style="ellipse;whiteSpace=wrap;html=1;" parent="1" vertex="1">
          <mxGeometry x="1037.5" y="239" width="85" height="40" as="geometry" />
        </mxCell>
        <mxCell id="EREIrCHlglOrBg9rId-w-40" value="jenis" style="ellipse;whiteSpace=wrap;html=1;" parent="1" vertex="1">
          <mxGeometry x="1032.5" y="298" width="85" height="40" as="geometry" />
        </mxCell>
        <mxCell id="EREIrCHlglOrBg9rId-w-41" value="" style="endArrow=none;html=1;rounded=0;entryX=0.5;entryY=1;entryDx=0;entryDy=0;exitX=0;exitY=0.25;exitDx=0;exitDy=0;" parent="1" source="EREIrCHlglOrBg9rId-w-36" target="EREIrCHlglOrBg9rId-w-38" edge="1">
          <mxGeometry width="50" height="50" relative="1" as="geometry">
            <mxPoint x="927.5" y="298" as="sourcePoint" />
            <mxPoint x="977.5" y="248" as="targetPoint" />
          </mxGeometry>
        </mxCell>
        <mxCell id="EREIrCHlglOrBg9rId-w-42" value="" style="endArrow=none;html=1;rounded=0;entryX=0.5;entryY=1;entryDx=0;entryDy=0;exitX=1;exitY=0.25;exitDx=0;exitDy=0;" parent="1" source="EREIrCHlglOrBg9rId-w-36" target="EREIrCHlglOrBg9rId-w-39" edge="1">
          <mxGeometry width="50" height="50" relative="1" as="geometry">
            <mxPoint x="897.5" y="313" as="sourcePoint" />
            <mxPoint x="880.5" y="278" as="targetPoint" />
          </mxGeometry>
        </mxCell>
        <mxCell id="EREIrCHlglOrBg9rId-w-43" value="" style="endArrow=none;html=1;rounded=0;entryX=0;entryY=0.5;entryDx=0;entryDy=0;exitX=1;exitY=0.5;exitDx=0;exitDy=0;" parent="1" source="EREIrCHlglOrBg9rId-w-36" target="EREIrCHlglOrBg9rId-w-40" edge="1">
          <mxGeometry width="50" height="50" relative="1" as="geometry">
            <mxPoint x="1017.5" y="313" as="sourcePoint" />
            <mxPoint x="1050.5" y="278" as="targetPoint" />
          </mxGeometry>
        </mxCell>
        <mxCell id="EREIrCHlglOrBg9rId-w-44" value="" style="endArrow=none;html=1;rounded=0;entryX=1;entryY=0.5;entryDx=0;entryDy=0;exitX=0;exitY=0.5;exitDx=0;exitDy=0;" parent="1" source="EREIrCHlglOrBg9rId-w-36" target="EREIrCHlglOrBg9rId-w-37" edge="1">
          <mxGeometry width="50" height="50" relative="1" as="geometry">
            <mxPoint x="887.5" y="318" as="sourcePoint" />
            <mxPoint x="880.5" y="278" as="targetPoint" />
          </mxGeometry>
        </mxCell>
        <mxCell id="EREIrCHlglOrBg9rId-w-45" value="id_outlet (pk)" style="ellipse;whiteSpace=wrap;html=1;" parent="1" vertex="1">
          <mxGeometry x="1010" y="178" width="97.5" height="40" as="geometry" />
        </mxCell>
        <mxCell id="EREIrCHlglOrBg9rId-w-46" value="" style="endArrow=none;html=1;rounded=0;entryX=0.5;entryY=1;entryDx=0;entryDy=0;exitX=0.75;exitY=0;exitDx=0;exitDy=0;" parent="1" source="EREIrCHlglOrBg9rId-w-36" target="EREIrCHlglOrBg9rId-w-45" edge="1">
          <mxGeometry width="50" height="50" relative="1" as="geometry">
            <mxPoint x="852.5" y="338" as="sourcePoint" />
            <mxPoint x="902.5" y="288" as="targetPoint" />
          </mxGeometry>
        </mxCell>
        <mxCell id="EREIrCHlglOrBg9rId-w-47" value="transaksi" style="rounded=0;whiteSpace=wrap;html=1;" parent="1" vertex="1">
          <mxGeometry x="510" y="260" width="120" height="60" as="geometry" />
        </mxCell>
        <mxCell id="EREIrCHlglOrBg9rId-w-48" value="id (pk)" style="ellipse;whiteSpace=wrap;html=1;" parent="1" vertex="1">
          <mxGeometry x="400" y="270" width="85" height="40" as="geometry" />
        </mxCell>
        <mxCell id="EREIrCHlglOrBg9rId-w-49" value="&lt;span style=&quot;font-weight: normal;&quot;&gt;id_kustomer (fk)&lt;/span&gt;" style="ellipse;whiteSpace=wrap;html=1;fontStyle=1" parent="1" vertex="1">
          <mxGeometry x="400" y="200" width="110" height="40" as="geometry" />
        </mxCell>
        <mxCell id="EREIrCHlglOrBg9rId-w-50" value="user_id (fk)" style="ellipse;whiteSpace=wrap;html=1;" parent="1" vertex="1">
          <mxGeometry x="630" y="200" width="85" height="40" as="geometry" />
        </mxCell>
        <mxCell id="EREIrCHlglOrBg9rId-w-51" value="total" style="ellipse;whiteSpace=wrap;html=1;" parent="1" vertex="1">
          <mxGeometry x="680" y="250" width="85" height="40" as="geometry" />
        </mxCell>
        <mxCell id="EREIrCHlglOrBg9rId-w-52" value="" style="endArrow=none;html=1;rounded=0;entryX=0.5;entryY=1;entryDx=0;entryDy=0;exitX=0;exitY=0.25;exitDx=0;exitDy=0;" parent="1" source="EREIrCHlglOrBg9rId-w-47" target="EREIrCHlglOrBg9rId-w-49" edge="1">
          <mxGeometry width="50" height="50" relative="1" as="geometry">
            <mxPoint x="550" y="270" as="sourcePoint" />
            <mxPoint x="600" y="220" as="targetPoint" />
          </mxGeometry>
        </mxCell>
        <mxCell id="EREIrCHlglOrBg9rId-w-53" value="" style="endArrow=none;html=1;rounded=0;entryX=0.5;entryY=1;entryDx=0;entryDy=0;exitX=1;exitY=0.25;exitDx=0;exitDy=0;" parent="1" source="EREIrCHlglOrBg9rId-w-47" target="EREIrCHlglOrBg9rId-w-50" edge="1">
          <mxGeometry width="50" height="50" relative="1" as="geometry">
            <mxPoint x="520" y="285" as="sourcePoint" />
            <mxPoint x="503" y="250" as="targetPoint" />
          </mxGeometry>
        </mxCell>
        <mxCell id="EREIrCHlglOrBg9rId-w-54" value="" style="endArrow=none;html=1;rounded=0;entryX=0;entryY=0.5;entryDx=0;entryDy=0;exitX=1;exitY=0.5;exitDx=0;exitDy=0;" parent="1" source="EREIrCHlglOrBg9rId-w-47" target="EREIrCHlglOrBg9rId-w-51" edge="1">
          <mxGeometry width="50" height="50" relative="1" as="geometry">
            <mxPoint x="640" y="285" as="sourcePoint" />
            <mxPoint x="673" y="250" as="targetPoint" />
          </mxGeometry>
        </mxCell>
        <mxCell id="EREIrCHlglOrBg9rId-w-55" value="" style="endArrow=none;html=1;rounded=0;entryX=1;entryY=0.5;entryDx=0;entryDy=0;exitX=0;exitY=0.5;exitDx=0;exitDy=0;" parent="1" source="EREIrCHlglOrBg9rId-w-47" target="EREIrCHlglOrBg9rId-w-48" edge="1">
          <mxGeometry width="50" height="50" relative="1" as="geometry">
            <mxPoint x="510" y="290" as="sourcePoint" />
            <mxPoint x="503" y="250" as="targetPoint" />
          </mxGeometry>
        </mxCell>
        <mxCell id="EREIrCHlglOrBg9rId-w-56" value="id_outlet (fk)" style="ellipse;whiteSpace=wrap;html=1;" parent="1" vertex="1">
          <mxGeometry x="340" y="330" width="97.5" height="40" as="geometry" />
        </mxCell>
        <mxCell id="EREIrCHlglOrBg9rId-w-57" value="" style="endArrow=none;html=1;rounded=0;entryX=0.5;entryY=0;entryDx=0;entryDy=0;exitX=0.25;exitY=1;exitDx=0;exitDy=0;" parent="1" source="EREIrCHlglOrBg9rId-w-47" target="EREIrCHlglOrBg9rId-w-56" edge="1">
          <mxGeometry width="50" height="50" relative="1" as="geometry">
            <mxPoint x="475" y="310" as="sourcePoint" />
            <mxPoint x="525" y="260" as="targetPoint" />
          </mxGeometry>
        </mxCell>
        <mxCell id="EREIrCHlglOrBg9rId-w-58" value="tanggal" style="ellipse;whiteSpace=wrap;html=1;" parent="1" vertex="1">
          <mxGeometry x="645" y="330" width="85" height="40" as="geometry" />
        </mxCell>
        <mxCell id="EREIrCHlglOrBg9rId-w-59" value="" style="endArrow=none;html=1;rounded=0;entryX=0.75;entryY=1;entryDx=0;entryDy=0;" parent="1" source="EREIrCHlglOrBg9rId-w-58" target="EREIrCHlglOrBg9rId-w-47" edge="1">
          <mxGeometry width="50" height="50" relative="1" as="geometry">
            <mxPoint x="500" y="310" as="sourcePoint" />
            <mxPoint x="550" y="260" as="targetPoint" />
          </mxGeometry>
        </mxCell>
        <mxCell id="EREIrCHlglOrBg9rId-w-60" value="detail_transaksi" style="rounded=0;whiteSpace=wrap;html=1;" parent="1" vertex="1">
          <mxGeometry x="721" y="100" width="120" height="60" as="geometry" />
        </mxCell>
        <mxCell id="EREIrCHlglOrBg9rId-w-62" value="&lt;span style=&quot;font-weight: normal;&quot;&gt;id_transaksi (fk)&lt;/span&gt;" style="ellipse;whiteSpace=wrap;html=1;fontStyle=1" parent="1" vertex="1">
          <mxGeometry x="601" y="40" width="120" height="40" as="geometry" />
        </mxCell>
        <mxCell id="EREIrCHlglOrBg9rId-w-63" value="qty" style="ellipse;whiteSpace=wrap;html=1;" parent="1" vertex="1">
          <mxGeometry x="841" y="40" width="85" height="40" as="geometry" />
        </mxCell>
        <mxCell id="EREIrCHlglOrBg9rId-w-64" value="keterangan" style="ellipse;whiteSpace=wrap;html=1;" parent="1" vertex="1">
          <mxGeometry x="922.5" y="110" width="85" height="40" as="geometry" />
        </mxCell>
        <mxCell id="EREIrCHlglOrBg9rId-w-65" value="" style="endArrow=none;html=1;rounded=0;entryX=0.5;entryY=1;entryDx=0;entryDy=0;exitX=0;exitY=0.25;exitDx=0;exitDy=0;" parent="1" source="EREIrCHlglOrBg9rId-w-60" target="EREIrCHlglOrBg9rId-w-62" edge="1">
          <mxGeometry width="50" height="50" relative="1" as="geometry">
            <mxPoint x="761" y="110" as="sourcePoint" />
            <mxPoint x="811" y="60" as="targetPoint" />
          </mxGeometry>
        </mxCell>
        <mxCell id="EREIrCHlglOrBg9rId-w-66" value="" style="endArrow=none;html=1;rounded=0;entryX=0.5;entryY=1;entryDx=0;entryDy=0;exitX=1;exitY=0.25;exitDx=0;exitDy=0;" parent="1" source="EREIrCHlglOrBg9rId-w-60" target="EREIrCHlglOrBg9rId-w-63" edge="1">
          <mxGeometry width="50" height="50" relative="1" as="geometry">
            <mxPoint x="731" y="125" as="sourcePoint" />
            <mxPoint x="714" y="90" as="targetPoint" />
          </mxGeometry>
        </mxCell>
        <mxCell id="EREIrCHlglOrBg9rId-w-67" value="" style="endArrow=none;html=1;rounded=0;entryX=0;entryY=0.5;entryDx=0;entryDy=0;exitX=1;exitY=0.5;exitDx=0;exitDy=0;" parent="1" source="EREIrCHlglOrBg9rId-w-60" target="EREIrCHlglOrBg9rId-w-64" edge="1">
          <mxGeometry width="50" height="50" relative="1" as="geometry">
            <mxPoint x="851" y="125" as="sourcePoint" />
            <mxPoint x="884" y="90" as="targetPoint" />
          </mxGeometry>
        </mxCell>
        <mxCell id="EREIrCHlglOrBg9rId-w-69" value="id_transaksi (fk)" style="ellipse;whiteSpace=wrap;html=1;" parent="1" vertex="1">
          <mxGeometry x="732.25" y="30" width="97.5" height="40" as="geometry" />
        </mxCell>
        <mxCell id="EREIrCHlglOrBg9rId-w-70" value="" style="endArrow=none;html=1;rounded=0;entryX=0.5;entryY=1;entryDx=0;entryDy=0;exitX=0.5;exitY=0;exitDx=0;exitDy=0;" parent="1" source="EREIrCHlglOrBg9rId-w-60" target="EREIrCHlglOrBg9rId-w-69" edge="1">
          <mxGeometry width="50" height="50" relative="1" as="geometry">
            <mxPoint x="686" y="150" as="sourcePoint" />
            <mxPoint x="736" y="100" as="targetPoint" />
          </mxGeometry>
        </mxCell>
        <mxCell id="EREIrCHlglOrBg9rId-w-73" value="" style="endArrow=none;html=1;rounded=0;entryX=1;entryY=0.5;entryDx=0;entryDy=0;exitX=0;exitY=0.5;exitDx=0;exitDy=0;" parent="1" source="EREIrCHlglOrBg9rId-w-4" target="EREIrCHlglOrBg9rId-w-12" edge="1">
          <mxGeometry width="50" height="50" relative="1" as="geometry">
            <mxPoint x="885" y="530" as="sourcePoint" />
            <mxPoint x="885" y="470" as="targetPoint" />
          </mxGeometry>
        </mxCell>
        <mxCell id="EREIrCHlglOrBg9rId-w-75" value="" style="endArrow=none;html=1;rounded=0;exitX=0.5;exitY=0;exitDx=0;exitDy=0;entryX=0.5;entryY=1;entryDx=0;entryDy=0;" parent="1" source="EREIrCHlglOrBg9rId-w-4" target="EREIrCHlglOrBg9rId-w-36" edge="1">
          <mxGeometry width="50" height="50" relative="1" as="geometry">
            <mxPoint x="880" y="380" as="sourcePoint" />
            <mxPoint x="930" y="330" as="targetPoint" />
          </mxGeometry>
        </mxCell>
        <mxCell id="EREIrCHlglOrBg9rId-w-76" value="1" style="text;html=1;align=center;verticalAlign=middle;resizable=0;points=[];autosize=1;strokeColor=none;fillColor=none;" parent="1" vertex="1">
          <mxGeometry x="946.5" y="346" width="30" height="30" as="geometry" />
        </mxCell>
        <mxCell id="EREIrCHlglOrBg9rId-w-77" value="N" style="text;html=1;align=center;verticalAlign=middle;resizable=0;points=[];autosize=1;strokeColor=none;fillColor=none;" parent="1" vertex="1">
          <mxGeometry x="950" y="450" width="30" height="30" as="geometry" />
        </mxCell>
        <mxCell id="EREIrCHlglOrBg9rId-w-80" value="" style="endArrow=none;html=1;rounded=0;exitX=0.5;exitY=0;exitDx=0;exitDy=0;entryX=0.5;entryY=1;entryDx=0;entryDy=0;" parent="1" source="EREIrCHlglOrBg9rId-w-6" target="EREIrCHlglOrBg9rId-w-47" edge="1">
          <mxGeometry width="50" height="50" relative="1" as="geometry">
            <mxPoint x="780" y="380" as="sourcePoint" />
            <mxPoint x="830" y="330" as="targetPoint" />
          </mxGeometry>
        </mxCell>
        <mxCell id="EREIrCHlglOrBg9rId-w-81" value="N" style="text;html=1;align=center;verticalAlign=middle;resizable=0;points=[];autosize=1;strokeColor=none;fillColor=none;" parent="1" vertex="1">
          <mxGeometry x="570" y="320" width="30" height="30" as="geometry" />
        </mxCell>
        <mxCell id="EREIrCHlglOrBg9rId-w-82" value="1" style="text;html=1;align=center;verticalAlign=middle;resizable=0;points=[];autosize=1;strokeColor=none;fillColor=none;" parent="1" vertex="1">
          <mxGeometry x="571" y="420" width="30" height="30" as="geometry" />
        </mxCell>
        <mxCell id="EREIrCHlglOrBg9rId-w-83" value="" style="endArrow=none;html=1;rounded=0;exitX=0.5;exitY=1;exitDx=0;exitDy=0;entryX=0.5;entryY=0;entryDx=0;entryDy=0;" parent="1" source="EREIrCHlglOrBg9rId-w-5" target="EREIrCHlglOrBg9rId-w-47" edge="1">
          <mxGeometry width="50" height="50" relative="1" as="geometry">
            <mxPoint x="590" y="300" as="sourcePoint" />
            <mxPoint x="640" y="250" as="targetPoint" />
            <Array as="points">
              <mxPoint x="310" y="180" />
              <mxPoint x="570" y="180" />
            </Array>
          </mxGeometry>
        </mxCell>
        <mxCell id="EREIrCHlglOrBg9rId-w-84" value="1" style="text;html=1;align=center;verticalAlign=middle;resizable=0;points=[];autosize=1;strokeColor=none;fillColor=none;" parent="1" vertex="1">
          <mxGeometry x="309.5" y="148" width="30" height="30" as="geometry" />
        </mxCell>
        <mxCell id="EREIrCHlglOrBg9rId-w-85" value="N" style="text;html=1;align=center;verticalAlign=middle;resizable=0;points=[];autosize=1;strokeColor=none;fillColor=none;" parent="1" vertex="1">
          <mxGeometry x="541" y="230" width="30" height="30" as="geometry" />
        </mxCell>
        <mxCell id="EREIrCHlglOrBg9rId-w-86" value="" style="endArrow=none;html=1;rounded=0;exitX=1;exitY=0.75;exitDx=0;exitDy=0;" parent="1" source="EREIrCHlglOrBg9rId-w-47" target="EREIrCHlglOrBg9rId-w-4" edge="1">
          <mxGeometry width="50" height="50" relative="1" as="geometry">
            <mxPoint x="590" y="410" as="sourcePoint" />
            <mxPoint x="640" y="360" as="targetPoint" />
            <Array as="points">
              <mxPoint x="760" y="305" />
              <mxPoint x="760" y="510" />
            </Array>
          </mxGeometry>
        </mxCell>
        <mxCell id="EREIrCHlglOrBg9rId-w-87" value="1" style="text;html=1;align=center;verticalAlign=middle;resizable=0;points=[];autosize=1;strokeColor=none;fillColor=none;" parent="1" vertex="1">
          <mxGeometry x="850" y="480" width="30" height="30" as="geometry" />
        </mxCell>
        <mxCell id="EREIrCHlglOrBg9rId-w-88" value="N" style="text;html=1;align=center;verticalAlign=middle;resizable=0;points=[];autosize=1;strokeColor=none;fillColor=none;" parent="1" vertex="1">
          <mxGeometry x="730" y="300" width="30" height="30" as="geometry" />
        </mxCell>
        <mxCell id="EREIrCHlglOrBg9rId-w-91" value="" style="endArrow=none;html=1;rounded=0;exitX=0.75;exitY=0;exitDx=0;exitDy=0;entryX=0;entryY=0.5;entryDx=0;entryDy=0;" parent="1" source="EREIrCHlglOrBg9rId-w-47" target="EREIrCHlglOrBg9rId-w-60" edge="1">
          <mxGeometry width="50" height="50" relative="1" as="geometry">
            <mxPoint x="720" y="300" as="sourcePoint" />
            <mxPoint x="700" y="120" as="targetPoint" />
            <Array as="points">
              <mxPoint x="600" y="130" />
            </Array>
          </mxGeometry>
        </mxCell>
        <mxCell id="EREIrCHlglOrBg9rId-w-92" value="N" style="text;html=1;align=center;verticalAlign=middle;resizable=0;points=[];autosize=1;strokeColor=none;fillColor=none;" parent="1" vertex="1">
          <mxGeometry x="691" y="130" width="30" height="30" as="geometry" />
        </mxCell>
        <mxCell id="EREIrCHlglOrBg9rId-w-93" value="1" style="text;html=1;align=center;verticalAlign=middle;resizable=0;points=[];autosize=1;strokeColor=none;fillColor=none;" parent="1" vertex="1">
          <mxGeometry x="595" y="231" width="30" height="30" as="geometry" />
        </mxCell>
        <mxCell id="EREIrCHlglOrBg9rId-w-94" value="" style="endArrow=none;html=1;rounded=0;exitX=0.5;exitY=0;exitDx=0;exitDy=0;entryX=0.5;entryY=1;entryDx=0;entryDy=0;" parent="1" source="EREIrCHlglOrBg9rId-w-36" target="EREIrCHlglOrBg9rId-w-60" edge="1">
          <mxGeometry width="50" height="50" relative="1" as="geometry">
            <mxPoint x="937.5" y="218" as="sourcePoint" />
            <mxPoint x="778" y="180" as="targetPoint" />
            <Array as="points">
              <mxPoint x="948" y="200" />
              <mxPoint x="780" y="200" />
            </Array>
          </mxGeometry>
        </mxCell>
        <mxCell id="EREIrCHlglOrBg9rId-w-95" value="1" style="text;html=1;align=center;verticalAlign=middle;resizable=0;points=[];autosize=1;strokeColor=none;fillColor=none;" parent="1" vertex="1">
          <mxGeometry x="946.5" y="261" width="30" height="30" as="geometry" />
        </mxCell>
        <mxCell id="EREIrCHlglOrBg9rId-w-96" value="N" style="text;html=1;align=center;verticalAlign=middle;resizable=0;points=[];autosize=1;strokeColor=none;fillColor=none;" parent="1" vertex="1">
          <mxGeometry x="777.5" y="160" width="30" height="30" as="geometry" />
        </mxCell>
        <mxCell id="fNhzlwTySzu4kJeenWPB-1" value="nama" style="ellipse;whiteSpace=wrap;html=1;" vertex="1" parent="1">
          <mxGeometry x="887.5" y="570" width="80" height="40" as="geometry" />
        </mxCell>
        <mxCell id="fNhzlwTySzu4kJeenWPB-2" value="" style="endArrow=none;html=1;rounded=0;" edge="1" parent="1" source="fNhzlwTySzu4kJeenWPB-1" target="EREIrCHlglOrBg9rId-w-4">
          <mxGeometry width="50" height="50" relative="1" as="geometry">
            <mxPoint x="900" y="490" as="sourcePoint" />
            <mxPoint x="885" y="470" as="targetPoint" />
          </mxGeometry>
        </mxCell>
        <mxCell id="fNhzlwTySzu4kJeenWPB-3" value="id_outlet" style="ellipse;whiteSpace=wrap;html=1;" vertex="1" parent="1">
          <mxGeometry x="980" y="570" width="80" height="40" as="geometry" />
        </mxCell>
        <mxCell id="fNhzlwTySzu4kJeenWPB-4" value="" style="endArrow=none;html=1;rounded=0;exitX=0;exitY=0;exitDx=0;exitDy=0;" edge="1" parent="1" source="fNhzlwTySzu4kJeenWPB-3" target="EREIrCHlglOrBg9rId-w-4">
          <mxGeometry width="50" height="50" relative="1" as="geometry">
            <mxPoint x="943" y="580" as="sourcePoint" />
            <mxPoint x="952" y="550" as="targetPoint" />
          </mxGeometry>
        </mxCell>
        <mxCell id="fNhzlwTySzu4kJeenWPB-7" value="" style="endArrow=none;html=1;rounded=0;exitX=1;exitY=0.5;exitDx=0;exitDy=0;entryX=-0.025;entryY=0.133;entryDx=0;entryDy=0;entryPerimeter=0;" edge="1" parent="1" source="EREIrCHlglOrBg9rId-w-6" target="EREIrCHlglOrBg9rId-w-4">
          <mxGeometry width="50" height="50" relative="1" as="geometry">
            <mxPoint x="580" y="468" as="sourcePoint" />
            <mxPoint x="580" y="330" as="targetPoint" />
          </mxGeometry>
        </mxCell>
        <mxCell id="fNhzlwTySzu4kJeenWPB-8" value="1" style="text;html=1;align=center;verticalAlign=middle;resizable=0;points=[];autosize=1;strokeColor=none;fillColor=none;" vertex="1" parent="1">
          <mxGeometry x="640" y="460" width="30" height="30" as="geometry" />
        </mxCell>
        <mxCell id="fNhzlwTySzu4kJeenWPB-9" value="N" style="text;html=1;align=center;verticalAlign=middle;resizable=0;points=[];autosize=1;strokeColor=none;fillColor=none;" vertex="1" parent="1">
          <mxGeometry x="832.5" y="458" width="30" height="30" as="geometry" />
        </mxCell>
        <mxCell id="fNhzlwTySzu4kJeenWPB-10" value="tlp" style="ellipse;whiteSpace=wrap;html=1;" vertex="1" parent="1">
          <mxGeometry x="397.5" y="548" width="80" height="40" as="geometry" />
        </mxCell>
        <mxCell id="fNhzlwTySzu4kJeenWPB-11" value="" style="endArrow=none;html=1;rounded=0;entryX=0;entryY=0.75;entryDx=0;entryDy=0;" edge="1" parent="1" source="fNhzlwTySzu4kJeenWPB-10" target="EREIrCHlglOrBg9rId-w-6">
          <mxGeometry width="50" height="50" relative="1" as="geometry">
            <mxPoint x="490" y="498" as="sourcePoint" />
            <mxPoint x="520" y="498" as="targetPoint" />
          </mxGeometry>
        </mxCell>
        <mxCell id="fNhzlwTySzu4kJeenWPB-12" value="jenis_kelamin" style="ellipse;whiteSpace=wrap;html=1;" vertex="1" parent="1">
          <mxGeometry x="275" y="-10" width="85" height="40" as="geometry" />
        </mxCell>
        <mxCell id="fNhzlwTySzu4kJeenWPB-13" value="" style="endArrow=none;html=1;rounded=0;entryX=0.5;entryY=1;entryDx=0;entryDy=0;exitX=0.621;exitY=-0.025;exitDx=0;exitDy=0;exitPerimeter=0;" edge="1" parent="1" source="EREIrCHlglOrBg9rId-w-5" target="fNhzlwTySzu4kJeenWPB-12">
          <mxGeometry width="50" height="50" relative="1" as="geometry">
            <mxPoint x="380" y="115" as="sourcePoint" />
            <mxPoint x="413" y="80" as="targetPoint" />
          </mxGeometry>
        </mxCell>
        <mxCell id="fNhzlwTySzu4kJeenWPB-14" value="id (pk)" style="ellipse;whiteSpace=wrap;html=1;" vertex="1" parent="1">
          <mxGeometry x="862.5" y="148" width="85" height="40" as="geometry" />
        </mxCell>
        <mxCell id="fNhzlwTySzu4kJeenWPB-15" value="" style="endArrow=none;html=1;rounded=0;" edge="1" parent="1" source="EREIrCHlglOrBg9rId-w-60" target="fNhzlwTySzu4kJeenWPB-14">
          <mxGeometry width="50" height="50" relative="1" as="geometry">
            <mxPoint x="851" y="140" as="sourcePoint" />
            <mxPoint x="978" y="138" as="targetPoint" />
          </mxGeometry>
        </mxCell>
        <mxCell id="fNhzlwTySzu4kJeenWPB-16" value="diskon" style="ellipse;whiteSpace=wrap;html=1;" vertex="1" parent="1">
          <mxGeometry x="347.5" y="380" width="97.5" height="40" as="geometry" />
        </mxCell>
        <mxCell id="fNhzlwTySzu4kJeenWPB-17" value="" style="endArrow=none;html=1;rounded=0;entryX=0.79;entryY=0.192;entryDx=0;entryDy=0;entryPerimeter=0;" edge="1" parent="1" target="fNhzlwTySzu4kJeenWPB-16">
          <mxGeometry width="50" height="50" relative="1" as="geometry">
            <mxPoint x="530" y="320" as="sourcePoint" />
            <mxPoint x="465" y="340" as="targetPoint" />
          </mxGeometry>
        </mxCell>
        <mxCell id="fNhzlwTySzu4kJeenWPB-18" value="biaya_tambahan" style="ellipse;whiteSpace=wrap;html=1;" vertex="1" parent="1">
          <mxGeometry x="460" y="400" width="97.5" height="40" as="geometry" />
        </mxCell>
        <mxCell id="fNhzlwTySzu4kJeenWPB-19" value="" style="endArrow=none;html=1;rounded=0;entryX=0.5;entryY=0;entryDx=0;entryDy=0;exitX=0.25;exitY=1;exitDx=0;exitDy=0;" edge="1" parent="1" source="EREIrCHlglOrBg9rId-w-47" target="fNhzlwTySzu4kJeenWPB-18">
          <mxGeometry width="50" height="50" relative="1" as="geometry">
            <mxPoint x="540" y="330" as="sourcePoint" />
            <mxPoint x="435" y="398" as="targetPoint" />
          </mxGeometry>
        </mxCell>
        <mxCell id="fNhzlwTySzu4kJeenWPB-20" value="status" style="ellipse;whiteSpace=wrap;html=1;" vertex="1" parent="1">
          <mxGeometry x="595" y="390" width="97.5" height="40" as="geometry" />
        </mxCell>
        <mxCell id="fNhzlwTySzu4kJeenWPB-21" value="" style="endArrow=none;html=1;rounded=0;entryX=0.633;entryY=0.033;entryDx=0;entryDy=0;entryPerimeter=0;" edge="1" parent="1" source="fNhzlwTySzu4kJeenWPB-20" target="EREIrCHlglOrBg9rId-w-81">
          <mxGeometry width="50" height="50" relative="1" as="geometry">
            <mxPoint x="663" y="348" as="sourcePoint" />
            <mxPoint x="610" y="330" as="targetPoint" />
          </mxGeometry>
        </mxCell>
      </root>
    </mxGraphModel>
  </diagram>
</mxfile>
